<svg clip-rule="evenodd" fill-rule="evenodd" height="5.914cm" image-rendering="optimizeQuality" shape-rendering="geometricPrecision" text-rendering="geometricPrecision" viewBox="0 0 36.3 41.91" width="5.121cm" xmlns="http://www.w3.org/2000/svg" xmlns:xodm="http://www.corel.com/coreldraw/odm/2003"><g id="Layer_x0020_1"><g id="_2391022651712"><path d="m29.52 11.68h-26.19c-1.84 0-3.33 1.5-3.33 3.33v15.24c0 1.84 1.5 3.33 3.33 3.33h26.19c1.37 0 2.48-1.11 2.48-2.48 0-5.65 0-11.29 0-16.94 0-1.37-1.11-2.48-2.48-2.48z" fill="#bf2c2c"/><path d="m7.4 0h21.33l7.56 7.56v32.25c0 1.15-.94 2.1-2.1 2.1h-26.79c-1.15 0-2.1-.94-2.1-2.1v-37.72c0-1.15.94-2.1 2.1-2.1z" fill="#ffd4d8"/><path d="m36.3 7.56h-6.5c-.59 0-1.06-.48-1.06-1.06v-6.5z" fill="#e0bfc2"/><g fill="#d32f2f"><path d="m10.73 11.68h20.13c.62 0 1.13.51 1.13 1.13v1.07c0 .62-.51 1.13-1.13 1.13h-20.13c-.62 0-1.13-.51-1.13-1.13v-1.07c0-.62.51-1.13 1.13-1.13z"/><path d="m10.73 5h13.85c.62 0 1.13.51 1.13 1.13v1.07c0 .62-.51 1.13-1.13 1.13h-13.85c-.62 0-1.13-.51-1.13-1.13v-1.07c0-.62.51-1.13 1.13-1.13z"/><path d="m29.52 33.58h-26.19c-1.83 0-3.33-1.5-3.33-3.33v-15.24c0 1.84 1.49 3.34 3.33 3.34h26.19c1.37 0 2.48 1.11 2.48 2.48v10.26c0 1.37-1.11 2.48-2.48 2.48z"/></g><path d="m8.15 20.89h2.35c.79 0 1.39.21 1.78.64.4.43.59 1.05.59 1.87v1c0 .82-.2 1.45-.59 1.87-.4.43-.99.64-1.78.64h-.75v4.13h-1.59v-10.15zm2.35 4.57c.26 0 .46-.07.59-.22.13-.14.2-.39.2-.74v-1.2c0-.35-.07-.59-.2-.74-.13-.14-.33-.22-.59-.22h-.75v3.12zm3.25-4.57h2.44c.79 0 1.39.21 1.78.64.4.43.59 1.05.59 1.87v5.13c0 .82-.2 1.44-.59 1.87-.4.43-.99.64-1.78.64h-2.44zm2.41 8.7c.26 0 .46-.08.6-.23s.21-.41.21-.75v-5.28c0-.35-.07-.6-.21-.75s-.34-.23-.6-.23h-.81v7.25h.81zm3.48-8.7h4.22v1.45h-2.62v2.83h2.06v1.45h-2.06v4.42h-1.59v-10.15z" fill="#f7f7f7" fill-rule="nonzero"/></g></g></svg>