<svg xmlns="http://www.w3.org/2000/svg" version="1.1" xmlns:xlink="http://www.w3.org/1999/xlink" width="512" height="512" x="0" y="0" viewBox="0 0 74 74" style="enable-background:new 0 0 512 512" xml:space="preserve" class=""><g><path d="M70 18.38H4a2 2 0 0 0-2 2v5.27a2 2 0 0 0 2 2h66a2 2 0 0 0 2-2v-5.27a2 2 0 0 0-2-2zM5.25 65.38a1 1 0 0 0 1 1h61.5a1 1 0 0 0 1-1V29.65H5.25zm23.68-15.69 4.82-11a1 1 0 0 1 .92-.59h7.68a1 1 0 0 1 .91 1.42l-3 6.59h3.94a1 1 0 0 1 .94.64 1 1 0 0 1-.28 1.11L31.5 59.66a1 1 0 0 1-1.21.09 1 1 0 0 1-.4-1.16l2.55-7.49h-2.59a1 1 0 0 1-.84-.46 1 1 0 0 1-.08-.95zM63.33 13.58a1 1 0 0 0-1-1h-2.08v-3.5a1 1 0 0 0-1-1h-7.5a1 1 0 0 0-1 1v3.5h-2.08a1 1 0 0 0-1 1v2.8h15.66zM26.33 13.58a1 1 0 0 0-1-1h-2.08v-3.5a1 1 0 0 0-1-1h-7.5a1 1 0 0 0-1 1v3.5h-2.08a1 1 0 0 0-1 1v2.8h15.66z" fill="#dddcdf" opacity="1" data-original="#000000" class=""></path></g></svg>