<svg xmlns="http://www.w3.org/2000/svg" version="1.1" xmlns:xlink="http://www.w3.org/1999/xlink" width="512" height="512" x="0" y="0" viewBox="0 0 64 64" style="enable-background:new 0 0 512 512" xml:space="preserve" class=""><g><path d="M59.86 23.502c-.18-.31-.5-.5-.86-.5H41.38c1.926 2.001 3.18 4.589 3.5 7.33H56c.36 0 .69-.19.87-.51l3-5.33c.18-.31.17-.69-.01-.99zM42.87 33.671c1.12-6.453-4.247-12.79-10.87-12.67-10.71.025-15.034 13.885-6.32 20 6.47 4.715 16.11.614 17.19-7.33zM32 38.001c-3.31 0-6-2.69-6-6 .28-7.941 11.722-7.939 12 0 0 3.31-2.69 6-6 6z" fill="#dddcdf" opacity="1" data-original="#000000" class=""></path><path d="M19.16 30.011a12.853 12.853 0 0 1 3.46-7.01H5c-.36 0-.68.19-.86.5-.18.3-.19.68-.01.99l3 5.33c.18.32.51.51.87.51h11.11c.01-.11.03-.21.05-.32zM19.15 33.961c-.08-.51-.13-1.05-.14-1.63h-8.47l1.59 2.83c.18.31.51.51.87.51h6.53c-.17-.56-.29-1.13-.38-1.71zM20.3 37.671h-4.76l1.59 2.82c.18.32.51.51.87.51h4.63c-.966-.96-1.741-2.128-2.33-3.33zM42.04 40.271c-.21.25-.43.49-.66.73H46c.36 0 .69-.19.87-.51l1.59-2.82H43.7c-.44.92-1 1.79-1.66 2.6zM44.84 33.991c-.08.56-.2 1.12-.37 1.68H51c.36 0 .69-.2.87-.51l1.59-2.83h-8.47c-.01.58-.06 1.12-.15 1.66zM32 28.001c-5.287.162-5.286 7.839 0 8 5.287-.162 5.286-7.838 0-8zm0 5c-1.314-.025-1.313-1.975 0-2 1.314.026 1.313 1.975 0 2z" fill="#dddcdf" opacity="1" data-original="#000000" class=""></path></g></svg>