<svg xmlns="http://www.w3.org/2000/svg" version="1.1" xmlns:xlink="http://www.w3.org/1999/xlink" width="512" height="512" x="0" y="0" viewBox="0 0 24 24" style="enable-background:new 0 0 512 512" xml:space="preserve" class=""><g><path d="M19.5 4a.5.5 0 0 0-.354.147L11.293 12l-3.068 3.068-4.078 4.079a.5.5 0 0 0 0 .707.5.5 0 0 0 .707 0l3.918-3.918A.5.5 0 0 0 9 16h6a.5.5 0 0 0 .447-.277L16.308 14H17.5a.5.5 0 0 0 .5.5h1a.5.5 0 0 0 .5-.5v-3.25a.5.5 0 0 0-.5-.5v-.687l.945.105a.5.5 0 0 0 .11 0l1.5-.166a.5.5 0 0 0 0-.994l-1.5-.166a.5.5 0 0 0-.11 0l-.947.105A.5.5 0 0 0 18.5 8a.5.5 0 0 0-.492.447l-.953-.105a.5.5 0 0 0-.11 0l-.652.072 3.56-3.56a.5.5 0 0 0 0-.707A.5.5 0 0 0 19.5 4zm-14 4a.5.5 0 0 0-.496.469l-.95-.106a.5.5 0 0 0-.108 0l-1.5.166a.5.5 0 0 0 0 .994l1.5.168a.5.5 0 0 0 .109 0L5 9.586v.664a.5.5 0 0 0-.5.5V14a.5.5 0 0 0 .5.5h1a.5.5 0 0 0 .5-.5h1.192l.062.125L9.879 12H8.5a.5.5 0 0 0-.447.277L7.692 13H6.5v-2.25a.5.5 0 0 0-.5-.5v-.664l.945.105a.5.5 0 0 0 .11 0l1.5-.168a.5.5 0 0 0 0-.994l-1.5-.166a.5.5 0 0 0-.11 0l-.947.106A.5.5 0 0 0 5.5 8zm9.777 1.43a.5.5 0 0 0 .168.072l1.5.166a.5.5 0 0 0 .11 0L18 9.563v.687a.5.5 0 0 0-.5.5V13h-1.192l-.36-.723A.5.5 0 0 0 15.5 12h-2.793z" fill="#dddcdf" opacity="1" data-original="#000000" class=""></path></g></svg>