<svg xmlns="http://www.w3.org/2000/svg" version="1.1" xmlns:xlink="http://www.w3.org/1999/xlink" width="512" height="512" x="0" y="0" viewBox="0 0 452.923 452" style="enable-background:new 0 0 512 512" xml:space="preserve" class=""><g><path d="M303.184 295.848H59.714C26.79 295.848 0 266.418 0 230.25c0-27.984 16.129-52.867 40.129-61.918a10.233 10.233 0 0 0 6.332-11.297 16.55 16.55 0 0 1-.086-2.566c0-43.133 31.992-78.227 71.309-78.227a66.706 66.706 0 0 1 38.91 12.77c.953.687 1.87 1.418 2.793 2.148a77.7 77.7 0 0 1 3.433 2.91 73.717 73.717 0 0 1 2.672 2.516 71.98 71.98 0 0 1 3.43 3.707c.66.75 1.34 1.48 1.973 2.262a75.923 75.923 0 0 1 4.882 6.746 9.855 9.855 0 0 0 6.364 4.398c.015 0 .027-.004.043-.004l.011.008c.93.129 1.868.121 2.793-.031.352.02.703.015 1.055-.008a9.726 9.726 0 0 0 3.605-1.598 55.369 55.369 0 0 1 32.399-10.562 54.309 54.309 0 0 1 20.93 4.23l.015.004c.63.262 1.188.672 1.805.957a62.352 62.352 0 0 1 27.691 25.813 67.98 67.98 0 0 1 8.54 24.652 10.252 10.252 0 0 0 4.124 6.934 9.466 9.466 0 0 0 7.055 1.597c.238-.035.473.047.711-.007a47.568 47.568 0 0 1 10.277-1.028c28.805.004 52.91 22.535 58.489 52.39a71.636 71.636 0 0 1 1.214 13.204c0 36.168-26.789 65.598-59.714 65.598zm90.043-75.782h-11.188c-.176-1.59-.469-3.132-.723-4.695-.148-.922-.246-1.86-.421-2.77a91.623 91.623 0 0 0-1.653-6.94c-.094-.329-.148-.673-.246-.997a86.83 86.83 0 0 0-2.59-7.656c-.261-.668-.582-1.305-.855-1.965-.75-1.793-1.512-3.578-2.367-5.305-.426-.86-.91-1.672-1.36-2.511-.793-1.473-1.582-2.946-2.449-4.36-.543-.887-1.133-1.726-1.703-2.586-.867-1.312-1.742-2.613-2.676-3.867-.633-.852-1.3-1.66-1.96-2.484a87.164 87.164 0 0 0-2.934-3.493 82.43 82.43 0 0 0-2.196-2.324 81.022 81.022 0 0 0-3.199-3.148 86.862 86.862 0 0 0-2.383-2.113 81.683 81.683 0 0 0-3.465-2.805 78.847 78.847 0 0 0-2.543-1.875 81.09 81.09 0 0 0-3.738-2.461 80.415 80.415 0 0 0-2.668-1.606 78.358 78.358 0 0 0-4.015-2.097c-.915-.45-1.817-.91-2.747-1.32-1.418-.63-2.867-1.176-4.32-1.715-.926-.344-1.836-.711-2.773-1.016-1.54-.504-3.114-.906-4.692-1.309-.898-.23-1.777-.5-2.687-.695-1.762-.379-3.555-.637-5.352-.887-.765-.105-1.512-.27-2.281-.351a73.954 73.954 0 0 0-7.836-.43h-.023c-1.543 0-3.063.047-4.543.133a88.866 88.866 0 0 0-9.012-22.152 82.255 82.255 0 0 0-39.402-35.383 72.928 72.928 0 0 0-28.157-5.75h-.043a73.97 73.97 0 0 0-35.43 9.035A93.568 93.568 0 0 0 174 77.156c-.414-.355-.781-.761-1.203-1.11 6.371-29.038 30.5-50.323 58.055-50.323a55.349 55.349 0 0 1 32.421 10.562 9.615 9.615 0 0 0 7.473 1.633 9.846 9.846 0 0 0 6.356-4.387C290.32 12.821 312.066.461 335.273.461c39.309 0 71.29 35.094 71.29 78.226.039.872.007 1.739-.09 2.602a10.233 10.233 0 0 0 6.336 11.262c23.996 9.05 40.113 33.933 40.113 61.918 0 36.168-26.777 65.597-59.695 65.597zm0 0" fill="#dddcdf" opacity="1" data-original="#000000"></path></g></svg>