<svg xmlns="http://www.w3.org/2000/svg" version="1.1" xmlns:xlink="http://www.w3.org/1999/xlink" width="512" height="512" x="0" y="0" viewBox="0 0 32 32" style="enable-background:new 0 0 512 512" xml:space="preserve" class=""><g><path d="M26.5 8c-2.48 0-4.5 2.02-4.5 4.5 0 .55.45 1 1 1s1-.45 1-1a2.5 2.5 0 0 1 5 0 2.5 2.5 0 0 1-2.5 2.5H2c-.55 0-1 .45-1 1s.45 1 1 1h24.5c2.48 0 4.5-2.02 4.5-4.5S28.98 8 26.5 8z" fill="#dddcdf" opacity="1" data-original="#000000"></path><path d="M8 13h8.5c2.48 0 4.5-2.02 4.5-4.5S18.98 4 16.5 4 12 6.02 12 8.5c0 .55.45 1 1 1s1-.45 1-1a2.5 2.5 0 0 1 5 0 2.5 2.5 0 0 1-2.5 2.5H8c-.55 0-1 .45-1 1s.45 1 1 1zM21.5 19H5c-.55 0-1 .45-1 1s.45 1 1 1h16.5a2.5 2.5 0 0 1 0 5 2.5 2.5 0 0 1-2.5-2.5c0-.55-.45-1-1-1s-1 .45-1 1c0 2.48 2.02 4.5 4.5 4.5s4.5-2.02 4.5-4.5-2.02-4.5-4.5-4.5z" fill="#dddcdf" opacity="1" data-original="#000000"></path></g></svg>