<svg xmlns="http://www.w3.org/2000/svg" version="1.1" xmlns:xlink="http://www.w3.org/1999/xlink" width="512" height="512" x="0" y="0" viewBox="0 0 64 64" style="enable-background:new 0 0 512 512" xml:space="preserve" class=""><g><path d="M8.486 44.63h48.347c1.072 0 1.943.871 1.943 1.943v2.674a1.945 1.945 0 0 1-1.944 1.944H8.486a1.944 1.944 0 0 1-1.943-1.943v-2.674c0-1.073.871-1.944 1.944-1.944zM15.066 37.914l12.077-3.929-2.488 4.461a1.307 1.307 0 0 0 1.682 1.824l4.95-2.256 9.99-10.786 13.718-7.138c1.694-1.053 2.661-2.235 2.875-3.513.222-1.321-.46-2.207-.57-2.339-2.062-2.301-5.739-1.205-6.612-.9h-1.882a6.835 6.835 0 0 0-3.093.743L18.49 27.961l-9.177-4.655a1.952 1.952 0 0 0-1.924.096l-1.267.809a1.948 1.948 0 0 0-.862 1.269 1.95 1.95 0 0 0 .327 1.498l7.297 10.216a1.935 1.935 0 0 0 2.183.72z" fill="#dddcdf" opacity="1" data-original="#000000"></path></g></svg>