<svg xmlns="http://www.w3.org/2000/svg" version="1.1" xmlns:xlink="http://www.w3.org/1999/xlink" width="512" height="512" x="0" y="0" viewBox="0 0 512 512" style="enable-background:new 0 0 512 512" xml:space="preserve" class=""><g><g data-name="3"><path d="M362 0H150C67.16 0 0 67.16 0 150v212c0 82.84 67.16 150 150 150h212c82.84 0 150-67.16 150-150V150C512 67.16 444.84 0 362 0zm45.65 214.37c-2.1 8.71-6 13.05-11.7 13.05H346l-15.75 46.8h48.6c5.4 0 9.3 4.35 11.7 13.05 1.5 4.8 2.25 9.38 2.25 13.73s-.45 8.48-1.35 12.38c-2.1 8.7-6 13.05-11.7 13.05l-67.5.45-25.65 76.05c-1.8 4.5-6.3 6.75-13.5 6.75-6.3 0-12.9-1.65-19.8-4.95-13.8-6.6-19.05-13.35-15.75-20.25l19.35-57.6h-52.2l-25.65 75.6c-1.5 4.21-5.7 6.3-12.6 6.3s-13.8-1.65-20.7-4.95c-13.8-6.59-19.05-13.34-15.75-20.25l18.9-56.7h-33.75c-3.3 0-6-1.8-8.1-5.4-2.7-4.2-4.05-9.15-4.05-14.85s.29-10.8.9-15.3c.6-4.5 2.17-8.47 4.73-11.92 2.54-3.45 5.47-5.02 8.77-4.72h49.5l15.75-46.8h-51.3c-3.3 0-6-1.8-8.1-5.4-2.7-4.2-4.05-9.15-4.05-14.85s.29-10.8.9-15.3c.6-4.5 2.17-8.47 4.73-11.92 2.54-3.45 5.47-5.02 8.77-4.72h66.6l22.5-66.15c1.8-4.79 6.59-7.2 14.4-7.2 6 0 12.45 1.5 19.35 4.5 13.5 6 19.05 12.15 16.65 18.45L256 175.7h52.2l22.05-65.7c2.4-6.6 9.75-8.55 22.05-5.85 12.6 2.41 21.3 6.6 26.1 12.6 2.7 3.3 3.45 6.45 2.25 9.45L364 175.25h31.05c5.4 0 9.29 4.35 11.7 13.05 1.5 4.8 2.25 9.38 2.25 13.72s-.45 8.48-1.35 12.38z" fill="#dddcdf" opacity="1" data-original="#000000" class=""></path><path d="M216.4 278.73h61.2l18.45-54.91h-61.2z" fill="#dddcdf" opacity="1" data-original="#000000" class=""></path></g></g></svg>